<?xml version="1.0" standalone="no"?>
<!DOCTYPE svg PUBLIC "-//W3C//DTD SVG 20010904//EN"
 "http://www.w3.org/TR/2001/REC-SVG-20010904/DTD/svg10.dtd">
<svg version="1.0" xmlns="http://www.w3.org/2000/svg"
 width="920.000000pt" height="778.000000pt" viewBox="0 0 920.000000 778.000000"
 preserveAspectRatio="xMidYMid meet">

<g transform="translate(0.000000,778.000000) scale(0.100000,-0.100000)"
fill="#000000" stroke="none">
<path d="M5233 7730 c-79 -45 -113 -107 -113 -203 0 -56 27 -121 63 -155 12
-11 72 -48 132 -82 366 -206 639 -529 769 -912 77 -226 107 -449 87 -665 -14
-160 -32 -246 -82 -398 -116 -349 -338 -640 -655 -855 -110 -75 -137 -107
-155 -186 -17 -73 6 -146 68 -214 39 -44 71 -64 212 -133 383 -190 666 -392
967 -692 162 -162 306 -332 389 -461 93 -144 175 -180 301 -133 80 30 140 91
149 151 8 54 -12 132 -55 217 -80 159 -424 545 -686 769 -167 142 -427 326
-604 427 -47 27 -86 49 -87 50 -1 1 44 49 101 107 499 513 709 1234 558 1923
-49 222 -163 501 -277 681 -200 313 -521 606 -825 754 -109 52 -178 55 -257
10z"/>
<path d="M3095 7609 c-408 -51 -774 -217 -1085 -491 -356 -314 -585 -760 -641
-1248 -16 -143 -7 -404 20 -547 100 -534 402 -992 848 -1286 l93 -61 -143 -51
c-627 -227 -1141 -605 -1541 -1134 -328 -433 -551 -965 -630 -1502 -21 -139
-20 -155 8 -215 83 -179 337 -178 417 1 9 22 22 76 29 120 72 503 280 985 597
1385 91 115 337 360 453 452 849 670 1968 818 2966 392 281 -120 614 -339 838
-553 267 -255 509 -602 656 -941 51 -119 92 -152 189 -151 66 0 157 31 200 67
40 34 54 82 49 168 -6 89 -43 185 -138 359 -275 503 -684 939 -1163 1240 -209
131 -429 237 -670 322 l-118 41 94 62 c360 237 637 600 777 1018 54 164 77
279 92 462 31 396 -60 791 -260 1129 -315 532 -837 877 -1450 958 -122 16
-373 18 -487 4z m432 -460 c110 -15 287 -61 372 -97 488 -205 834 -640 917
-1151 19 -117 18 -364 -2 -482 -34 -203 -136 -446 -261 -622 -32 -45 -103
-127 -158 -182 -331 -331 -783 -487 -1250 -431 -459 55 -872 324 -1110 722
-341 570 -259 1302 199 1781 242 254 529 405 871 458 101 16 320 18 422 4z"/>
<path d="M7605 2865 l-25 -24 0 -606 0 -605 -594 0 c-355 0 -605 -4 -620 -10
-42 -16 -56 -57 -56 -170 0 -113 14 -154 56 -170 15 -6 265 -10 620 -10 l594
0 0 -605 0 -606 25 -24 c23 -24 30 -25 145 -25 68 0 130 5 142 11 47 25 48 40
48 664 l0 585 601 0 601 0 29 29 c29 29 29 30 29 151 0 121 0 122 -29 151
l-29 29 -601 0 -600 0 -3 606 -3 606 -28 24 c-26 23 -35 24 -153 24 -119 0
-126 -1 -149 -25z"/>
</g>
</svg>
