<svg width="142" height="158" viewBox="0 0 142 158" fill="none" xmlns="http://www.w3.org/2000/svg">
<path d="M116.512 20.015C115.885 20.015 115.258 19.8584 114.71 19.545C99.6701 11.79 86.6668 8.50002 71.0784 8.50002C55.5684 8.50002 40.8418 12.1817 27.4468 19.545C25.5668 20.5634 23.2168 19.8584 22.1201 17.9784C21.1018 16.0984 21.8068 13.67 23.6868 12.6517C38.2568 4.74002 54.2368 0.666687 71.0784 0.666687C87.7634 0.666687 102.333 4.34835 118.313 12.5734C120.272 13.5917 120.977 15.9417 119.958 17.8217C119.253 19.2317 117.922 20.015 116.512 20.015V20.015ZM4.41675 61.14C3.63342 61.14 2.85009 60.905 2.14509 60.435C0.343419 59.1817 -0.0482482 56.7534 1.20509 54.9517C8.96009 43.985 18.8301 35.3684 30.5801 29.3367C55.1768 16.6467 86.6668 16.5684 111.342 29.2584C123.092 35.29 132.962 43.8284 140.717 54.7167C141.97 56.44 141.578 58.9467 139.777 60.2C137.975 61.4534 135.547 61.0617 134.293 59.26C127.243 49.39 118.313 41.635 107.738 36.23C85.2568 24.715 56.5084 24.715 34.1051 36.3084C23.4518 41.7917 14.5218 49.625 7.47175 59.495C6.84509 60.5917 5.67009 61.14 4.41675 61.14V61.14ZM53.3751 155.688C52.3568 155.688 51.3384 155.297 50.6334 154.513C43.8184 147.698 40.1368 143.312 34.8884 133.833C29.4834 124.198 26.6634 112.448 26.6634 99.8367C26.6634 76.5717 46.5601 57.615 71.0001 57.615C95.4401 57.615 115.337 76.5717 115.337 99.8367C115.337 102.03 113.613 103.753 111.42 103.753C109.227 103.753 107.503 102.03 107.503 99.8367C107.503 80.88 91.1318 65.4484 71.0001 65.4484C50.8684 65.4484 34.4968 80.88 34.4968 99.8367C34.4968 111.117 37.0034 121.535 41.7818 129.995C46.7951 139.003 50.2418 142.842 56.2734 148.952C57.7618 150.518 57.7618 152.947 56.2734 154.513C55.4118 155.297 54.3934 155.688 53.3751 155.688ZM109.54 141.197C100.218 141.197 91.9934 138.847 85.2568 134.225C73.5851 126.313 66.6134 113.467 66.6134 99.8367C66.6134 97.6434 68.3368 95.92 70.5301 95.92C72.7234 95.92 74.4468 97.6434 74.4468 99.8367C74.4468 110.882 80.0868 121.3 89.6434 127.723C95.2051 131.483 101.707 133.285 109.54 133.285C111.42 133.285 114.553 133.05 117.687 132.502C119.802 132.11 121.838 133.52 122.23 135.713C122.622 137.828 121.212 139.865 119.018 140.257C114.553 141.118 110.637 141.197 109.54 141.197V141.197ZM93.7951 157.333C93.4818 157.333 93.0901 157.255 92.7768 157.177C80.3218 153.73 72.1751 149.108 63.6368 140.727C52.6701 129.838 46.6384 115.347 46.6384 99.8367C46.6384 87.1467 57.4484 76.8067 70.7651 76.8067C84.0818 76.8067 94.8918 87.1467 94.8918 99.8367C94.8918 108.218 102.177 115.033 111.185 115.033C120.193 115.033 127.478 108.218 127.478 99.8367C127.478 70.305 102.02 46.335 70.6868 46.335C48.4401 46.335 28.0734 58.7117 18.9084 77.9034C15.8534 84.2484 14.2868 91.69 14.2868 99.8367C14.2868 105.947 14.8351 115.582 19.5351 128.115C20.3184 130.152 19.3001 132.423 17.2634 133.128C15.2268 133.912 12.9551 132.815 12.2501 130.857C8.41175 120.595 6.53175 110.412 6.53175 99.8367C6.53175 90.4367 8.33342 81.8984 11.8584 74.4567C22.2768 52.6017 45.3851 38.4234 70.6868 38.4234C106.328 38.4234 135.312 65.9184 135.312 99.7584C135.312 112.448 124.502 122.788 111.185 122.788C97.8684 122.788 87.0584 112.448 87.0584 99.7584C87.0584 91.3767 79.7734 84.5617 70.7651 84.5617C61.7568 84.5617 54.4718 91.3767 54.4718 99.7584C54.4718 113.153 59.6418 125.687 69.1201 135.087C76.5618 142.45 83.6901 146.523 94.7351 149.578C96.8501 150.127 98.0251 152.32 97.4768 154.357C97.0851 156.158 95.4401 157.333 93.7951 157.333V157.333Z" fill="#F0FDF9"/>
</svg>
