<svg width="251" height="251" viewBox="0 0 251 251" fill="none" xmlns="http://www.w3.org/2000/svg">
<g clip-path="url(#clip0_86_1385)">
<path d="M214.396 62.75C187.1 70.0709 155.097 73.2084 125.5 73.2084C95.9029 73.2084 63.9004 70.0709 36.6042 62.75L31.375 83.6667C50.8275 88.8959 73.2083 92.3471 94.125 94.125V230.083H115.042V167.333H135.958V230.083H156.875V94.125C177.792 92.3471 200.173 88.8959 219.625 83.6667L214.396 62.75ZM125.5 62.75C137.004 62.75 146.417 53.3375 146.417 41.8334C146.417 30.3292 137.004 20.9167 125.5 20.9167C113.996 20.9167 104.583 30.3292 104.583 41.8334C104.583 53.3375 113.996 62.75 125.5 62.75Z" fill="#F0FDF9"/>
</g>
<defs>
<clipPath id="clip0_86_1385">
<rect width="251" height="251" fill="white"/>
</clipPath>
</defs>
</svg>
