<svg width="34" height="34" viewBox="0 0 34 34" fill="none" xmlns="http://www.w3.org/2000/svg">
<g clip-path="url(#clip0_86_1435)">
<path d="M31.1668 9.88833V22.6667C31.1668 24.225 29.8918 25.5 28.3335 25.5H8.50016L2.8335 31.1667V5.66667C2.8335 4.10833 4.1085 2.83333 5.66683 2.83333H19.9752C19.8902 3.28667 19.8335 3.76833 19.8335 4.25C19.8335 4.73167 19.8902 5.21333 19.9752 5.66667H5.66683V22.6667H28.3335V11.1917C29.3818 10.9792 30.3452 10.5117 31.1668 9.88833ZM22.6668 4.25C22.6668 6.60167 24.5652 8.5 26.9168 8.5C29.2685 8.5 31.1668 6.60167 31.1668 4.25C31.1668 1.89833 29.2685 0 26.9168 0C24.5652 0 22.6668 1.89833 22.6668 4.25Z" fill="white"/>
</g>
<defs>
<clipPath id="clip0_86_1435">
<rect width="34" height="34" fill="white"/>
</clipPath>
</defs>
</svg>
