<svg width="26" height="26" viewBox="0 0 26 26" fill="none" xmlns="http://www.w3.org/2000/svg">
<path d="M12.2795 6.6524C10.0982 4.38608 7.83569 4.20225 6.17114 4.96295C4.44354 5.75264 3.16627 7.63855 3.16626 9.8985C3.16626 12.2203 4.11409 14.0127 5.4895 15.5616C6.89932 17.1491 8.67437 18.3981 10.3274 19.7012C10.899 20.1518 11.3974 20.5378 11.8743 20.8165C12.3514 21.0953 12.7124 21.2081 13.0002 21.2081C13.288 21.208 13.6483 21.0951 14.1252 20.8165C14.6021 20.5378 15.1005 20.1518 15.6721 19.7012C17.3252 18.3981 19.1001 17.1492 20.51 15.5616C21.8855 14.0127 22.8333 12.2204 22.8333 9.8985C22.8332 7.63863 21.5569 5.75269 19.8293 4.96295C18.1648 4.20207 15.9015 4.38592 13.72 6.6524L13.0002 7.40143L12.2795 6.6524Z" stroke="#0A9785" stroke-width="2"/>
</svg>
