<svg width="36" height="36" viewBox="0 0 36 36" fill="none" xmlns="http://www.w3.org/2000/svg">
<g clip-path="url(#clip0_86_1422)">
<path d="M15 18C18.315 18 21 15.315 21 12C21 8.685 18.315 6 15 6C11.685 6 9 8.685 9 12C9 15.315 11.685 18 15 18ZM15 9C16.65 9 18 10.35 18 12C18 13.65 16.65 15 15 15C13.35 15 12 13.65 12 12C12 10.35 13.35 9 15 9Z" fill="white"/>
<path d="M6 27C6.33 25.92 10.965 24 15 24C15 22.95 15.195 21.945 15.525 21.015C11.43 20.865 3 22.905 3 27V30H17.31C16.53 29.13 15.915 28.125 15.525 27H6Z" fill="white"/>
<path d="M29.145 27.03C29.685 26.145 30 25.11 30 24C30 20.685 27.315 18 24 18C20.685 18 18 20.685 18 24C18 27.315 20.685 30 24 30C25.11 30 26.145 29.67 27.03 29.145C28.425 30.54 29.46 31.575 30.885 33L33 30.885C30.75 28.635 31.815 29.685 29.145 27.03ZM24 27C22.35 27 21 25.65 21 24C21 22.35 22.35 21 24 21C25.65 21 27 22.35 27 24C27 25.65 25.65 27 24 27Z" fill="white"/>
</g>
<defs>
<clipPath id="clip0_86_1422">
<rect width="36" height="36" fill="white"/>
</clipPath>
</defs>
</svg>
